<mxfile host="65bd71144e">
    <diagram id="9DgsukaBtQh2XGoFBsjh" name="Página-1">
        <mxGraphModel dx="816" dy="424" grid="1" gridSize="10" guides="1" tooltips="1" connect="1" arrows="1" fold="1" page="1" pageScale="1" pageWidth="827" pageHeight="1169" math="0" shadow="0">
            <root>
                <mxCell id="0"/>
                <mxCell id="1" parent="0"/>
                <mxCell id="3" value="Persona" style="swimlane;" vertex="1" parent="1">
                    <mxGeometry x="80" y="130" width="120" height="110" as="geometry"/>
                </mxCell>
                <mxCell id="4" value="Nombre: 1 Texto&lt;br/&gt;Apellidos: 1 Texto&lt;br/&gt;Rol: 0..* Texto&lt;br/&gt;" style="text;html=1;align=center;verticalAlign=middle;resizable=0;points=[];autosize=1;strokeColor=none;fillColor=none;" vertex="1" parent="3">
                    <mxGeometry y="30" width="120" height="60" as="geometry"/>
                </mxCell>
                <mxCell id="6" value="Proyecto" style="swimlane;" vertex="1" parent="1">
                    <mxGeometry x="344" y="130" width="140" height="110" as="geometry"/>
                </mxCell>
                <mxCell id="8" value="Nombre: 1 Texto&lt;br/&gt;Fecha de inicio: 1 Tiempo&lt;br/&gt;Fecha de fin: 0..1 Tiempo" style="text;html=1;align=center;verticalAlign=middle;resizable=0;points=[];autosize=1;strokeColor=none;fillColor=none;" vertex="1" parent="6">
                    <mxGeometry x="-10" y="30" width="160" height="60" as="geometry"/>
                </mxCell>
                <mxCell id="10" value="Lugar" style="swimlane;" vertex="1" parent="1">
                    <mxGeometry x="630" y="130" width="150" height="110" as="geometry"/>
                </mxCell>
                <mxCell id="13" value="Nombre: 0..* Texto&lt;br/&gt;Coordenada X: 1 Número&lt;br/&gt;Coordenada Y: 1 Número" style="text;html=1;align=center;verticalAlign=middle;resizable=0;points=[];autosize=1;strokeColor=none;fillColor=none;" vertex="1" parent="10">
                    <mxGeometry x="-10" y="25" width="160" height="60" as="geometry"/>
                </mxCell>
                <mxCell id="18" value="" style="endArrow=none;html=1;" edge="1" parent="1">
                    <mxGeometry width="50" height="50" relative="1" as="geometry">
                        <mxPoint x="200" y="200" as="sourcePoint"/>
                        <mxPoint x="340" y="200" as="targetPoint"/>
                    </mxGeometry>
                </mxCell>
                <mxCell id="20" value="" style="endArrow=none;html=1;" edge="1" parent="1">
                    <mxGeometry width="50" height="50" relative="1" as="geometry">
                        <mxPoint x="484" y="190" as="sourcePoint"/>
                        <mxPoint x="624" y="190" as="targetPoint"/>
                    </mxGeometry>
                </mxCell>
                <mxCell id="21" value="Participa En" style="text;html=1;align=center;verticalAlign=middle;resizable=0;points=[];autosize=1;strokeColor=none;fillColor=none;" vertex="1" parent="1">
                    <mxGeometry x="215" y="150" width="90" height="30" as="geometry"/>
                </mxCell>
                <mxCell id="22" value="Tiene Lugar En" style="text;html=1;align=center;verticalAlign=middle;resizable=0;points=[];autosize=1;strokeColor=none;fillColor=none;" vertex="1" parent="1">
                    <mxGeometry x="500" y="130" width="110" height="30" as="geometry"/>
                </mxCell>
                <mxCell id="24" value="Miembro&lt;br/&gt;del Equipo" style="text;html=1;align=center;verticalAlign=middle;resizable=0;points=[];autosize=1;strokeColor=none;fillColor=none;" vertex="1" parent="1">
                    <mxGeometry x="200" y="200" width="80" height="40" as="geometry"/>
                </mxCell>
                <mxCell id="25" value="Lugar de&lt;br/&gt;Actuación" style="text;html=1;align=center;verticalAlign=middle;resizable=0;points=[];autosize=1;strokeColor=none;fillColor=none;" vertex="1" parent="1">
                    <mxGeometry x="550" y="195" width="80" height="40" as="geometry"/>
                </mxCell>
                <mxCell id="29" value="0..*" style="text;html=1;align=center;verticalAlign=middle;resizable=0;points=[];autosize=1;strokeColor=none;fillColor=none;" vertex="1" parent="1">
                    <mxGeometry x="490" y="155" width="40" height="30" as="geometry"/>
                </mxCell>
                <mxCell id="30" value="0..*" style="text;html=1;align=center;verticalAlign=middle;resizable=0;points=[];autosize=1;strokeColor=none;fillColor=none;" vertex="1" parent="1">
                    <mxGeometry x="590" y="155" width="40" height="30" as="geometry"/>
                </mxCell>
                <mxCell id="31" value="0..*" style="text;html=1;align=center;verticalAlign=middle;resizable=0;points=[];autosize=1;strokeColor=none;fillColor=none;" vertex="1" parent="1">
                    <mxGeometry x="305" y="165" width="40" height="30" as="geometry"/>
                </mxCell>
                <mxCell id="32" value="1..*" style="text;html=1;align=center;verticalAlign=middle;resizable=0;points=[];autosize=1;strokeColor=none;fillColor=none;" vertex="1" parent="1">
                    <mxGeometry x="200" y="170" width="40" height="30" as="geometry"/>
                </mxCell>
            </root>
        </mxGraphModel>
    </diagram>
</mxfile>